<svg width="16" height="16" viewBox="0 0 16 16" fill="none" xmlns="http://www.w3.org/2000/svg">
<path fill-rule="evenodd" clip-rule="evenodd" d="M11.2 5C11.2 6.75406 10.071 8.24442 8.5 8.78401V11H11V13.5H8.5V15H6V8.81688C4.37716 8.30717 3.20001 6.79105 3.20001 5C3.20001 2.79086 4.99087 1 7.20001 1C9.40915 1 11.2 2.79086 11.2 5ZM8.59999 5.0001C8.59999 5.7733 7.97319 6.4001 7.19999 6.4001C6.42679 6.4001 5.79999 5.7733 5.79999 5.0001C5.79999 4.2269 6.42679 3.6001 7.19999 3.6001C7.97319 3.6001 8.59999 4.2269 8.59999 5.0001Z" fill="#B99BF8" fill-opacity="0.7"/>
</svg>
